<svg width="0" height="0" class="hidden">
  <symbol fill="none" xmlns="http://www.w3.org/2000/svg" viewBox="0 0 20 20" id="eye-off">
    <g clip-path="url(#clip0_4_621)">
      <path d="M14.9499 14.9499C13.5254 16.0358 11.7908 16.6373 9.99992 16.6666C4.16659 16.6666 0.833252 9.99994 0.833252 9.99994C1.86983 8.06819 3.30753 6.38045 5.04992 5.04994M8.24992 3.53327C8.82353 3.39901 9.41081 3.33189 9.99992 3.33327C15.8333 3.33327 19.1666 9.99994 19.1666 9.99994C18.6607 10.9463 18.0575 11.8372 17.3666 12.6583M11.7666 11.7666C11.5377 12.0122 11.2617 12.2092 10.955 12.3459C10.6484 12.4825 10.3173 12.556 9.98166 12.5619C9.64599 12.5678 9.31256 12.5061 9.00126 12.3803C8.68997 12.2546 8.40719 12.0675 8.16979 11.8301C7.9324 11.5927 7.74525 11.3099 7.61951 10.9986C7.49377 10.6873 7.43202 10.3539 7.43795 10.0182C7.44387 9.68252 7.51734 9.35148 7.65398 9.04481C7.79062 8.73815 7.98763 8.46215 8.23325 8.23327" stroke="#121417" stroke-width="2" stroke-linecap="round" stroke-linejoin="round"></path>
      <path d="M0.833252 0.833374L19.1666 19.1667" stroke="#121417" stroke-width="2" stroke-linecap="round" stroke-linejoin="round"></path>
    </g>
    <defs>
      <clipPath id="clip0_4_621">
        <rect width="20" height="20" fill="white"></rect>
      </clipPath>
    </defs>
  </symbol>
  <symbol fill="none" xmlns="http://www.w3.org/2000/svg" viewBox="0 0 20 20" id="login">
    <path d="M12.5 2.5H13.5C14.9001 2.5 15.6002 2.5 16.135 2.77248C16.6054 3.01217 16.9878 3.39462 17.2275 3.86502C17.5 4.3998 17.5 5.09987 17.5 6.5V13.5C17.5 14.9001 17.5 15.6002 17.2275 16.135C16.9878 16.6054 16.6054 16.9878 16.135 17.2275C15.6002 17.5 14.9001 17.5 13.5 17.5H12.5" stroke="#F4C550" stroke-width="2" stroke-linecap="round" stroke-linejoin="round"></path>
    <path d="M8.33333 5.83325L12.5 9.99992M12.5 9.99992L8.33333 14.1666M12.5 9.99992L2.5 9.99992" stroke="#F4C550" stroke-width="2" stroke-linecap="round" stroke-linejoin="round"></path>
  </symbol>
  <symbol fill="none" xmlns="http://www.w3.org/2000/svg" viewBox="0 0 28 28" id="logo">
    <g clip-path="url(#clip0_4_550)">
      <path d="M14 28C21.732 28 28 21.732 28 14C28 6.26801 21.732 0 14 0C6.26801 0 0 6.26801 0 14C0 21.732 6.26801 28 14 28Z" fill="#FFDA44"></path>
      <path d="M0 14C0 6.26806 6.26806 0 14 0C21.7319 0 28 6.26806 28 14" fill="#338AF3"></path>
    </g>
    <defs>
      <clipPath id="clip0_4_550">
        <rect width="28" height="28" fill="white"></rect>
      </clipPath>
    </defs>
  </symbol>
  <symbol fill="none" xmlns="http://www.w3.org/2000/svg" viewBox="0 0 16 16" id="star">
    <g clip-path="url(#clip0_44_287)">
      <path d="M6.20021 4.69703L8 1.28579L9.79979 4.69703C9.95896 4.9987 10.2491 5.20947 10.5851 5.26762L14.3856 5.92519L11.6975 8.69103C11.4598 8.93563 11.3489 9.27666 11.3975 9.61427L11.9465 13.4319L8.48537 11.7301C8.17929 11.5795 7.82071 11.5796 7.51463 11.7301L4.05348 13.4319L4.6025 9.61427C4.65105 9.27666 4.54024 8.93563 4.30252 8.69103L1.6144 5.92519L5.41486 5.26762C5.75095 5.20947 6.04104 4.9987 6.20021 4.69703ZM14.5177 5.78928L14.5175 5.78947L14.5177 5.78928ZM3.8834 13.5155C3.88344 13.5155 3.88349 13.5155 3.88353 13.5155L3.8834 13.5155Z" fill="#FFC531" stroke="#FFC531" stroke-width="1.2"></path>
    </g>
    <defs>
      <clipPath id="clip0_44_287">
        <rect width="16" height="16" fill="white"></rect>
      </clipPath>
    </defs>
  </symbol>
  <symbol fill="none" xmlns="http://www.w3.org/2000/svg" viewBox="0 0 9 14" id="book">
    <path d="M1.33325 3.13333C1.33325 2.3866 1.33325 2.01323 1.47858 1.72801C1.60641 1.47713 1.81038 1.27316 2.06126 1.14532C2.34648 1 2.71985 1 3.46659 1H3.73325C5.22673 1 5.97346 1 6.54389 1.29065C7.04566 1.54631 7.45361 1.95426 7.70927 2.45603C7.99992 3.02646 7.99992 3.77319 7.99992 5.26667V13L7.93322 12.8999C7.47012 12.2053 7.23857 11.858 6.93265 11.6065C6.66182 11.3839 6.34976 11.2169 6.01432 11.1151C5.63542 11 5.21799 11 4.38313 11H3.46659C2.71985 11 2.34648 11 2.06126 10.8547C1.81038 10.7268 1.60641 10.5229 1.47858 10.272C1.33325 9.98677 1.33325 9.6134 1.33325 8.86667V3.13333Z" stroke="black" stroke-width="1.5" stroke-linecap="round" stroke-linejoin="round"></path>
  </symbol>
  <symbol fill="none" xmlns="http://www.w3.org/2000/svg" viewBox="0 0 24 22" id="yellow-heart">
    <path d="M21.5766 2.99419C21.0233 2.44061 20.3663 2.00147 19.6433 1.70187C18.9202 1.40226 18.1452 1.24805 17.3625 1.24805C16.5798 1.24805 15.8047 1.40226 15.0817 1.70187C14.3586 2.00147 13.7016 2.44061 13.1483 2.99419L12 4.14252L10.8516 2.99419C9.73397 1.87652 8.21809 1.24863 6.63747 1.24863C5.05685 1.24863 3.54097 1.87652 2.4233 2.99419C1.30563 4.11186 0.677734 5.62774 0.677734 7.20836C0.677734 8.78898 1.30563 10.3049 2.4233 11.4225L3.57163 12.5709L12 20.9992L20.4283 12.5709L21.5766 11.4225C22.1302 10.8692 22.5693 10.2122 22.869 9.48916C23.1686 8.76608 23.3228 7.99105 23.3228 7.20836C23.3228 6.42566 23.1686 5.65064 22.869 4.92756C22.5693 4.20448 22.1302 3.54751 21.5766 2.99419Z" fill="#F4C550" stroke="#F4C550" stroke-linecap="round" stroke-linejoin="round"></path>
  </symbol>
  <symbol fill="none" xmlns="http://www.w3.org/2000/svg" viewBox="0 0 26 26" id="black-heart">
    <path d="M22.5766 4.99419C22.0233 4.44061 21.3663 4.00147 20.6433 3.70187C19.9202 3.40226 19.1452 3.24805 18.3625 3.24805C17.5798 3.24805 16.8047 3.40226 16.0817 3.70187C15.3586 4.00147 14.7016 4.44061 14.1483 4.99419L13 6.14252L11.8516 4.99419C10.734 3.87652 9.21809 3.24863 7.63747 3.24863C6.05685 3.24863 4.54097 3.87652 3.4233 4.99419C2.30563 6.11186 1.67773 7.62774 1.67773 9.20836C1.67773 10.789 2.30563 12.3049 3.4233 13.4225L4.57163 14.5709L13 22.9992L21.4283 14.5709L22.5766 13.4225C23.1302 12.8692 23.5693 12.2122 23.869 11.4892C24.1686 10.7661 24.3228 9.99105 24.3228 9.20836C24.3228 8.42566 24.1686 7.65064 23.869 6.92756C23.5693 6.20448 23.1302 5.54751 22.5766 4.99419Z" stroke="#121417" stroke-width="2" stroke-linecap="round" stroke-linejoin="round"></path>
  </symbol>
  <symbol fill="none" xmlns="http://www.w3.org/2000/svg" viewBox="0 0 12 8" id="arrow-down">
    <path d="M1 1.5L6 6.5L11 1.5" stroke="#121417" stroke-width="2" stroke-linecap="round" stroke-linejoin="round"></path>
  </symbol>
  <symbol fill="none" xmlns="http://www.w3.org/2000/svg" viewBox="0 0 24 24" id="close">
      <path d="M24 8L8 24" stroke="#121417" stroke-width="2.5" stroke-linecap="round" stroke-linejoin="round"></path>
      <path d="M8 8L24 24" stroke="#121417" stroke-width="2.5" stroke-linecap="round" stroke-linejoin="round"></path>
  </symbol>
</svg>